<svg width="70" height="70" viewBox="0 0 70 70" fill="none" xmlns="http://www.w3.org/2000/svg">
<g clip-path="url(#clip0_2_10)">
<path d="M35 0C15.6713 0 0 15.6713 0 35C0 54.3288 15.6713 70 35 70C54.3288 70 70 54.3288 70 35C70 15.6713 54.3288 0 35 0ZM62.9038 26.5358C62.7317 26.3667 62.5333 26.2208 62.3029 26.1333C61.5504 25.8388 58.3654 27.8921 57.8842 26.88C57.5692 26.2062 56.9304 27.3117 56.1983 26.9033C55.8454 26.7079 54.8596 25.3867 54.4163 25.5471C53.5063 25.8738 55.8133 28.3879 56.4404 28.7175C57.0325 28.2683 58.9488 27.3496 59.3629 28.6038C60.1533 30.9721 57.19 33.5679 55.6763 34.9358C53.4158 36.9833 53.8388 33.6117 52.2958 32.4275C51.4879 31.8063 51.4967 30.4821 50.6771 30.0242C50.3125 29.8171 48.6354 27.8892 48.6529 27.6296L48.6033 28.1167C48.3263 28.3267 47.7371 27.3292 47.6729 27.1687C47.6729 28.0379 49.0875 29.4204 49.5571 30.1175C50.3533 31.3104 50.7821 33.0488 51.7621 34.0229C52.2842 34.5479 54.2879 36.715 54.81 36.6713L57.4962 35.3967C59.3892 35.8458 53.0308 44.8379 52.4271 45.9521C51.9283 46.8883 52.8325 49.1954 52.7596 50.2979C52.675 51.5725 51.6688 51.9867 50.7179 52.6808C49.6971 53.4246 49.9363 54.8742 49.0788 55.405C47.5592 56.3413 46.4625 59.3892 44.2983 59.3746C43.6596 59.3717 40.9413 60.4363 40.5854 59.395C40.3083 58.6425 39.935 58.0679 39.5471 57.3242C39.165 56.595 39.5033 55.8367 39.0367 55.1921C38.7158 54.7429 37.6396 53.7279 37.5404 53.1971C37.5346 52.7392 37.8846 51.3538 38.3658 51.1117C39.0396 50.7675 38.4942 49.7642 38.4125 49.1779C38.2725 48.1367 37.625 47.2763 36.8521 46.6725C35.7058 45.7917 36.3008 45.0917 36.5663 43.8317C36.5663 43.2308 36.1988 42.4433 35.3938 42.6767C33.7313 43.1608 34.2388 41.3788 33.0254 41.4604C32.1533 41.5217 31.4417 42.0758 30.6308 42.3208C29.6129 42.6242 28.5688 42.0788 27.5596 41.9533C23.415 41.4313 22.0617 36.6917 23.1438 33.2733C23.2517 32.7133 22.8083 31.6779 23.0038 31.2433C23.4675 30.2167 24.4183 29.05 25.2437 28.2654C25.7104 27.8221 26.3083 27.9358 26.8567 27.5917C27.7025 27.0608 27.7142 25.9642 28.5425 25.2904C29.7208 24.3337 31.3308 24.3542 32.865 24.1471C33.6846 24.0392 36.8025 23.3654 37.2925 23.9721C37.2925 24.0858 37.8554 25.7542 37.2371 25.6579C38.5146 25.725 40.3317 27.8629 41.5421 27.3642C42.1633 27.1046 41.9358 25.1942 43.2133 26.1188C43.9863 26.6729 47.4425 26.9208 48.16 26.3229C48.6033 25.9583 48.8483 23.5842 48.3146 23.3158C48.6558 23.6542 46.5121 23.6804 46.3138 23.6046C45.9579 23.4763 45.6283 23.94 45.0596 23.6775C45.4008 23.8379 43.1608 22.6333 44.4179 21.7117C43.89 22.0967 43.4 21.6038 42.8313 22.0296C42.4375 22.3475 43.0121 22.5575 42.4521 22.8375C41.5625 23.2896 40.8917 21.2917 40.5592 21.0671C40.215 20.8425 37.5725 18.9875 38.2929 20.1979L40.6175 22.5108C40.5008 22.5867 40.0079 21.6679 40.0079 22.3388C40.1625 21.9421 40.0663 24.045 39.7017 23.3596C39.5383 23.0971 39.9671 22.9513 39.7192 22.5692C39.7192 22.3213 39.0483 22.0763 38.9171 21.9042C38.5496 21.4463 37.5696 20.44 37.0388 20.1979C36.8929 20.1279 34.79 20.4546 34.6121 20.5217C34.405 20.8104 34.23 21.1138 34.0842 21.4375C33.6496 21.5979 33.2383 21.8079 32.8504 22.0675L32.3867 23.1058C32.1883 23.2838 30.135 23.9633 30.1233 23.9896C30.2108 23.7679 28.6883 23.4879 28.7904 23.0446C28.9013 22.5575 29.4175 21.0408 29.2833 20.4867C29.1433 19.9063 32.4479 21.3237 32.6608 19.7925C32.7454 19.1304 32.7979 18.3575 31.7392 18.2438C31.9404 18.2671 33.7867 17.5175 34.0929 17.1821C34.5246 16.6892 35.5104 15.8783 36.225 15.8783C37.0592 15.8783 36.8813 14.6621 37.2633 14.0642C37.6513 14.2188 37.0563 15.1725 37.52 15.5575C37.4908 15.2542 38.8325 15.7238 38.9608 15.6538C39.2671 15.4904 40.9763 15.5867 40.7138 14.7817C40.4192 13.965 40.8654 14.2071 41.2475 14.0379C41.1892 14.0613 41.9708 12.7021 42.3063 12.7079C42.0029 12.4483 41.1454 13.0346 40.8013 13.0083C39.9029 12.9383 40.285 11.4771 40.6233 11.0483C40.8858 10.71 39.9058 10.2958 39.8942 10.9433C39.8767 11.9117 38.9783 12.7896 39.1854 14.0788C39.5033 16.0213 37.0183 13.6092 36.8054 13.7433C35.98 14.245 35.3033 13.1133 35.7321 12.4338C36.1667 11.7396 37.2196 11.7746 37.6542 11.0338C37.9575 10.5117 38.3163 9.89917 38.7858 9.50542C40.3638 8.18125 40.7954 9.24 42.3704 9.38292C43.9046 9.52292 42.8896 9.7475 42.6767 10.3367C42.4725 10.8967 43.5196 11.0979 43.8813 10.6283C44.0883 10.36 44.5579 9.6775 44.7592 9.17292C44.9633 8.6625 46.445 8.58958 46.2963 8.10833C54.2296 11.4567 60.375 18.2146 62.9038 26.5358ZM30.4908 15.5137L30.6892 15.26L30.9021 15.2046C31.0246 15.1054 31.1529 14.8604 31.3425 14.9013C31.4679 14.9275 31.7683 15.1783 31.6663 15.3329C31.5583 15.4904 31.4738 15.19 31.43 15.6275C31.3775 16.1204 30.8817 16.1146 30.5171 16.275C30.2633 16.3829 30.0067 16.2225 30.2546 15.9717L30.5113 15.6567L30.4908 15.5137ZM31.78 16.2283C31.9142 16.0971 32.1825 16.205 32.2204 15.9542C32.2613 15.7092 32.4479 15.435 32.1971 14.9771C32.1329 14.8546 32.5354 14.7379 32.3458 14.5775L32.0279 14.6708C32.0279 14.6708 32.48 12.7225 33.0896 13.6033L32.83 13.9038C33.2237 14.2946 33.3317 15.2746 33.4571 15.9075C33.8275 16.1 34.4021 16.135 33.7429 16.4675C34.0842 16.4092 31.9404 17.3833 31.6575 16.9867C31.4475 16.7446 32.5821 16.5813 32.5529 16.4821C32.5413 16.45 31.6283 16.4238 31.78 16.2283ZM35.9508 5.88292L34.9125 6.83375C33.8625 7.70292 31.1792 9.40917 29.6829 8.89C28.1546 8.365 24.8792 10.8354 24.3571 10.8529C24.1617 10.8617 24.3629 8.98333 25.4071 8.84333C24.9958 8.90458 28.3033 7.16625 28.8633 6.49542C30.8408 6.06958 32.8913 5.83333 35 5.83333L35.9508 5.88292ZM21.1167 9.35375C21.3208 9.59292 21.9275 9.62208 21.0408 10.1937C20.5071 10.5146 19.9413 12.5533 19.4425 12.5533C17.955 13.2038 17.8617 11.2729 16.2079 13.7579C15.9804 14.0933 15.0558 14.2188 14.3296 14.4463C16.3275 12.4396 18.6112 10.7158 21.1167 9.35375ZM5.83333 35C5.83333 33.4221 5.99375 31.885 6.23875 30.3742L7.09042 30.9138C7.42 31.3075 7.42 33.0108 7.58333 33.5708C7.98875 34.9767 8.995 35.7613 9.765 37.0417C10.2171 37.8029 10.9725 39.7338 10.7333 40.5329C11.0513 40.0108 13.8863 42.9363 14.4054 43.5458C15.6246 44.9808 16.5638 46.7192 14.5833 48.1367C13.9446 48.5975 15.5575 51.4617 14.7262 52.1675L13.6617 52.4417C13.0054 52.8442 12.9763 53.5996 13.1775 54.2821C8.62167 49.1342 5.83333 42.3938 5.83333 35ZM47.6788 18.0163C47.9208 17.9871 47.3667 18.5033 47.3667 18.5033C47.4629 19.25 48.0142 19.6583 49.0612 20.0404C50.3358 20.4983 49.1721 21.3675 48.44 21.1633C48.0346 21.0496 45.9492 20.4196 45.8763 21.2363C45.8763 21.7233 43.8958 21.2392 44.205 20.7258C44.4179 20.3788 44.3508 19.5971 44.7475 19.0867C45.3104 18.3429 45.8558 18.7483 45.8733 19.18C45.8704 20.3292 47.0342 18.0921 47.6788 18.0163Z" fill="white"/>
</g>
<defs>
<clipPath id="clip0_2_10">
<rect width="70" height="70" fill="white"/>
</clipPath>
</defs>
</svg>
