<svg width="24" height="24" viewBox="0 0 24 24" fill="none" xmlns="http://www.w3.org/2000/svg">
<path d="M13 16.745C13 16.331 12.664 15.995 12.25 15.995H2.75C2.336 15.995 2 16.331 2 16.745C2 17.159 2.336 17.495 2.75 17.495H12.25C12.664 17.495 13 17.159 13 16.745ZM22 11.745C22 11.331 21.664 10.995 21.25 10.995H2.75C2.336 10.995 2 11.331 2 11.745C2 12.159 2.336 12.495 2.75 12.495H21.25C21.664 12.495 22 12.159 22 11.745ZM18 6.745C18 6.331 17.664 5.995 17.25 5.995H2.75C2.336 5.995 2 6.331 2 6.745C2 7.159 2.336 7.495 2.75 7.495H17.25C17.664 7.495 18 7.159 18 6.745Z" fill="white"/>
</svg>
