<svg width="35" height="35" viewBox="0 0 35 35" fill="none" xmlns="http://www.w3.org/2000/svg">
<g clip-path="url(#clip0_2_117)">
<path d="M17.5 2.91667C25.5413 2.91667 32.0833 9.45875 32.0833 17.5C32.0833 25.5413 25.5413 32.0833 17.5 32.0833C9.45875 32.0833 2.91667 25.5413 2.91667 17.5C2.91667 9.45875 9.45875 2.91667 17.5 2.91667ZM17.5 0C7.83563 0 0 7.83563 0 17.5C0 27.1644 7.83563 35 17.5 35C27.1644 35 35 27.1644 35 17.5C35 7.83563 27.1644 0 17.5 0ZM19.3229 24.7917C19.3229 25.7979 18.5077 26.6146 17.5 26.6146C16.4952 26.6146 15.6771 25.7979 15.6771 24.7917C15.6771 23.7854 16.4952 22.9688 17.5 22.9688C18.5077 22.9688 19.3229 23.7854 19.3229 24.7917ZM21.3544 10.2113C20.4677 9.31292 19.145 8.81854 17.6342 8.81854C14.455 8.81854 12.3988 11.079 12.3988 14.579H15.3315C15.3315 12.4119 16.5404 11.6433 17.5744 11.6433C18.499 11.6433 19.4804 12.2573 19.5635 13.4313C19.654 14.6665 18.9948 15.2935 18.1606 16.0869C16.1015 18.0454 16.0635 18.9933 16.0723 21.1444H18.9963C18.9773 20.176 19.04 19.39 20.3598 17.9681C21.3471 16.9035 22.575 15.5794 22.5998 13.561C22.6158 12.2135 22.1856 11.0542 21.3544 10.2113Z" fill="#5F5F5F"/>
</g>
<defs>
<clipPath id="clip0_2_117">
<rect width="35" height="35" fill="white"/>
</clipPath>
</defs>
</svg>
